<?xml version="1.0" encoding="utf-8"?>
<!-- Generator: Adobe Illustrator 24.2.1, SVG Export Plug-In . SVG Version: 6.00 Build 0)  -->
<svg version="1.1" id="レイヤー_1" xmlns="http://www.w3.org/2000/svg" xmlns:xlink="http://www.w3.org/1999/xlink" x="0px"
	 y="0px" viewBox="0 0 46 46" style="enable-background:new 0 0 46 46;" xml:space="preserve" width="46" height="46">
<style type="text/css">
	.st0{fill:#A2D729;}
	.st1{fill:#131D34;}
</style>
<g>
	<path class="st0" d="M45.3,36.1c0,5.1-4.1,9.2-9.2,9.2H9.9c-5.1,0-9.2-4.1-9.2-9.2V9.9c0-5.1,4.1-9.2,9.2-9.2h26.2
		c5.1,0,9.2,4.1,9.2,9.2V36.1z"/>
	<g>
		<path class="st1" d="M31.8,34.7h-4.6l-1.6-6h-6.1l-1.6,6h-4.4L20,12h5.5L31.8,34.7z M25,25.4l-1.4-5.2c-0.4-1.4-0.7-3.2-1-4.6
			h-0.1c-0.3,1.4-0.7,3.3-1,4.6l-1.4,5.2H25z"/>
	</g>
</g>
</svg>
